<?xml version="1.0" encoding="UTF-8" standalone="no"?>
<!-- Created with Inkscape (http://www.inkscape.org/) -->

<svg
   version="1.1"
   id="svg5658"
   width="1800"
   height="229.33333"
   viewBox="0 0 1800 229.33333"
   sodipodi:docname="Official Logosource file_v3_white_white.svg"
   inkscape:version="1.2.1 (9c6d41e410, 2022-07-14)"
   xmlns:inkscape="http://www.inkscape.org/namespaces/inkscape"
   xmlns:sodipodi="http://sodipodi.sourceforge.net/DTD/sodipodi-0.dtd"
   xmlns="http://www.w3.org/2000/svg"
   xmlns:svg="http://www.w3.org/2000/svg">
  <defs
     id="defs5662">
    <clipPath
       clipPathUnits="userSpaceOnUse"
       id="clipPath5674">
      <path
         d="M 0,0 H 1350 V 172 H 0 Z"
         id="path5672" />
    </clipPath>
  </defs>
  <sodipodi:namedview
     id="namedview5660"
     pagecolor="#505050"
     bordercolor="#eeeeee"
     borderopacity="1"
     inkscape:showpageshadow="0"
     inkscape:pageopacity="0"
     inkscape:pagecheckerboard="0"
     inkscape:deskcolor="#505050"
     showgrid="false"
     inkscape:zoom="0.69277778"
     inkscape:cx="858.86127"
     inkscape:cy="114.03368"
     inkscape:window-width="1920"
     inkscape:window-height="1009"
     inkscape:window-x="1912"
     inkscape:window-y="-8"
     inkscape:window-maximized="1"
     inkscape:current-layer="g5666">
    <inkscape:page
       x="0"
       y="0"
       id="page5664"
       width="1800"
       height="229.33333"
       inkscape:export-filename="White_logo_VistaPrint.pdf"
       inkscape:export-xdpi="96"
       inkscape:export-ydpi="96" />
  </sodipodi:namedview>
  <g
     id="g5666"
     inkscape:groupmode="layer"
     inkscape:label="Page 1"
     transform="matrix(1.3333333,0,0,-1.3333333,0,229.33333)">
    <g
       id="g5668"
       style="fill:#ffffff">
      <g
         id="g5670"
         clip-path="url(#clipPath5674)"
         style="fill:#ffffff">
        <g
           id="g5676"
           transform="translate(180.0142,89.1504)"
           style="fill:#ffffff">
          <path
             d="m 0,0 c -6.725,0 -12.158,-2.295 -16.302,-6.888 -4.142,-4.594 -6.214,-10.311 -6.214,-17.158 0,-6.845 2.072,-12.563 6.214,-17.156 4.144,-4.594 9.577,-6.891 16.302,-6.891 6.666,0 12.083,2.268 16.256,6.801 4.172,4.531 6.261,10.281 6.261,17.246 0,6.964 -2.089,12.714 -6.261,17.247 C 12.083,-2.267 6.666,0 0,0 M 44.761,-67.726 H 21.795 v 9.637 c -6.425,-7.926 -15.129,-11.89 -26.117,-11.89 -12.07,0 -22.127,4.383 -30.172,13.152 -8.046,8.764 -12.067,19.691 -12.067,32.781 0,13.089 4.021,24.017 12.067,32.782 8.045,8.768 18.102,13.151 30.172,13.151 11.047,0 19.752,-3.995 26.117,-11.98 v 9.636 h 22.966 z"
             style="fill:#ffffff;fill-opacity:1;fill-rule:nonzero;stroke:none"
             id="path5678" />
        </g>
        <g
           id="g5680"
           transform="translate(297.9956,111.0371)"
           style="fill:#ffffff">
          <path
             d="m 0,0 c 9.966,0 18.118,-3.152 24.452,-9.458 6.335,-6.303 9.502,-14.499 9.502,-24.586 V -89.612 H 10.447 v 48.004 c 0,6.303 -1.471,11.136 -4.413,14.499 -2.941,3.361 -7.145,5.044 -12.608,5.044 -5.344,0 -9.759,-1.698 -13.239,-5.09 -3.483,-3.391 -5.223,-8.271 -5.223,-14.634 v -47.823 h -23.506 v 87.269 h 22.874 V -12.609 C -20.025,-4.204 -11.469,0 0,0"
             style="fill:#ffffff;fill-opacity:1;fill-rule:nonzero;stroke:none"
             id="path5682" />
        </g>
        <g
           id="g5684"
           transform="translate(404.5366,21.4248)"
           style="fill:#ffffff">
          <path
             d="m 0,0 h -27.107 l -34.495,87.27 h 25.578 L -13.418,24.768 9.368,87.27 h 24.766 z"
             style="fill:#ffffff;fill-opacity:1;fill-rule:nonzero;stroke:none"
             id="path5686" />
        </g>
        <g
           id="g5688"
           transform="translate(491.269,89.1504)"
           style="fill:#ffffff">
          <path
             d="m 0,0 c -6.724,0 -12.158,-2.295 -16.302,-6.888 -4.141,-4.594 -6.214,-10.311 -6.214,-17.158 0,-6.845 2.073,-12.563 6.214,-17.156 4.144,-4.594 9.578,-6.891 16.302,-6.891 6.667,0 12.084,2.268 16.256,6.801 4.173,4.531 6.263,10.281 6.263,17.246 0,6.964 -2.09,12.714 -6.263,17.247 C 12.084,-2.267 6.667,0 0,0 M 44.761,-67.726 H 21.795 v 9.637 c -6.425,-7.926 -15.128,-11.89 -26.117,-11.89 -12.069,0 -22.127,4.383 -30.172,13.152 -8.045,8.764 -12.067,19.691 -12.067,32.781 0,13.089 4.022,24.017 12.067,32.782 8.045,8.768 18.103,13.151 30.172,13.151 11.047,0 19.752,-3.995 26.117,-11.98 v 9.636 h 22.966 z"
             style="fill:#ffffff;fill-opacity:1;fill-rule:nonzero;stroke:none"
             id="path5690" />
        </g>
        <g
           id="g5692"
           transform="translate(623.3013,84.377)"
           style="fill:#ffffff">
          <path
             d="m 0,0 c -9.848,4.743 -19.125,7.117 -27.831,7.117 -4.385,0 -7.716,-0.708 -9.996,-2.117 -2.284,-1.412 -3.422,-3.348 -3.422,-5.809 0,-1.261 0.327,-2.312 0.99,-3.154 0.658,-0.841 1.739,-1.529 3.243,-2.07 1.5,-0.54 2.939,-0.961 4.321,-1.26 1.381,-0.303 3.273,-0.632 5.675,-0.991 l 7.747,-1.172 c 19.63,-3.003 29.448,-11.706 29.448,-26.116 0,-9.069 -3.544,-16.273 -10.628,-21.616 -7.085,-5.345 -16.901,-8.015 -29.448,-8.015 -16.091,0 -29.034,3.422 -38.817,10.265 l 9.277,17.834 c 8.523,-5.706 18.432,-8.556 29.718,-8.556 10.746,0 16.121,2.73 16.121,8.195 0,2.102 -1.141,3.782 -3.421,5.044 -2.285,1.261 -5.977,2.251 -11.078,2.972 l -7.114,0.991 c -20.115,2.82 -30.172,11.646 -30.172,26.478 0,8.947 3.259,15.941 9.772,20.986 6.513,5.041 15.534,7.562 27.065,7.562 13.327,0 25.486,-2.76 36.475,-8.285 z"
             style="fill:#ffffff;fill-opacity:1;fill-rule:nonzero;stroke:none"
             id="path5694" />
        </g>
        <g
           id="g5696"
           transform="translate(713.9912,84.377)"
           style="fill:#ffffff">
          <path
             d="m 0,0 c -9.849,4.743 -19.125,7.117 -27.831,7.117 -4.381,0 -7.712,-0.708 -9.996,-2.117 -2.28,-1.412 -3.423,-3.348 -3.423,-5.809 0,-1.261 0.332,-2.312 0.994,-3.154 0.659,-0.841 1.74,-1.529 3.239,-2.07 1.5,-0.54 2.943,-0.961 4.325,-1.26 1.38,-0.303 3.27,-0.632 5.671,-0.991 l 7.748,-1.172 c 19.634,-3.003 29.452,-11.706 29.452,-26.116 0,-9.069 -3.544,-16.273 -10.628,-21.616 -7.085,-5.345 -16.904,-8.015 -29.452,-8.015 -16.091,0 -29.03,3.422 -38.817,10.265 l 9.277,17.834 c 8.526,-5.706 18.432,-8.556 29.722,-8.556 10.746,0 16.121,2.73 16.121,8.195 0,2.102 -1.141,3.782 -3.423,5.044 -2.283,1.261 -5.975,2.251 -11.077,2.972 l -7.118,0.991 c -20.114,2.82 -30.167,11.646 -30.167,26.478 0,8.947 3.254,15.941 9.771,20.986 6.513,5.041 15.535,7.562 27.062,7.562 13.33,0 25.488,-2.76 36.475,-8.285 z"
             style="fill:#ffffff;fill-opacity:1;fill-rule:nonzero;stroke:none"
             id="path5698" />
        </g>
        <g
           id="g5700"
           transform="translate(763.0742,78.6143)"
           style="fill:#ffffff">
          <path
             d="m 0,0 v -43.59 h 36.025 c 4.923,0 9.232,0.361 12.924,1.081 3.693,0.719 6.967,1.892 9.818,3.511 2.851,1.622 4.998,3.874 6.437,6.755 1.442,2.882 2.162,6.396 2.162,10.537 0,7.926 -2.687,13.525 -8.058,16.797 C 53.933,-1.637 46.171,0 36.025,0 Z M 0,55.299 V 13.51 h 33.863 c 3.662,0 6.951,0.178 9.864,0.54 2.912,0.36 5.717,1.02 8.419,1.982 2.704,0.959 4.938,2.219 6.711,3.781 1.771,1.561 3.18,3.588 4.23,6.08 1.051,2.491 1.58,5.388 1.58,8.69 0,3.244 -0.529,6.08 -1.58,8.512 -1.05,2.43 -2.474,4.414 -4.274,5.944 -1.801,1.53 -4.04,2.777 -6.711,3.738 -2.673,0.959 -5.478,1.62 -8.421,1.982 -2.943,0.359 -6.246,0.54 -9.91,0.54 z m 34.313,13.599 c 14.05,0 25.158,-2.689 33.324,-8.06 C 75.802,55.463 79.886,47.071 79.886,35.665 79.886,28.698 78.173,22.8 74.751,17.967 71.329,13.133 66.707,9.726 60.883,7.745 67.488,5.584 72.756,1.937 76.688,-3.198 c 3.933,-5.133 5.901,-11.452 5.901,-18.957 0,-11.888 -4.039,-20.699 -12.113,-26.433 -8.078,-5.735 -19.349,-8.6 -33.818,-8.6 H -14.5 V 68.898 Z"
             style="fill:#ffffff;fill-opacity:1;fill-rule:nonzero;stroke:none"
             id="path5702" />
        </g>
        <g
           id="g5704"
           transform="translate(948.873,57)"
           style="fill:#ffffff">
          <path
             d="m 0,0 c 0,-6.125 -1.051,-11.604 -3.152,-16.438 -2.101,-4.833 -4.952,-8.75 -8.557,-11.752 -3.602,-3.004 -7.701,-5.268 -12.292,-6.799 -4.595,-1.532 -9.502,-2.297 -14.726,-2.297 -5.286,0 -10.223,0.765 -14.814,2.297 -4.595,1.531 -8.694,3.795 -12.295,6.799 -3.602,3.002 -6.441,6.919 -8.512,11.752 -2.071,4.834 -3.106,10.313 -3.106,16.438 v 49.713 h 13.418 V 1.26 c 0,-8.527 2.3,-14.981 6.89,-19.364 4.595,-4.382 10.731,-6.573 18.419,-6.573 7.623,0 13.736,2.191 18.327,6.573 4.594,4.383 6.89,10.837 6.89,19.364 V 49.713 H 0 Z"
             style="fill:#ffffff;fill-opacity:1;fill-rule:nonzero;stroke:none"
             id="path5706" />
        </g>
        <path
           d="m 992.908,21.425 h -13.51 v 85.288 h 13.51 z m -6.753,125.096 c 2.642,0 4.892,-0.916 6.753,-2.747 1.862,-1.833 2.794,-4.097 2.794,-6.8 0,-2.701 -0.917,-4.953 -2.748,-6.755 -1.831,-1.801 -4.096,-2.701 -6.799,-2.701 -2.703,0 -4.952,0.9 -6.757,2.701 -1.8,1.802 -2.699,4.054 -2.699,6.755 0,2.703 0.899,4.967 2.699,6.8 1.805,1.831 4.054,2.747 6.757,2.747"
           style="fill:#ffffff;fill-opacity:1;fill-rule:nonzero;stroke:none"
           id="path5708" />
        <path
           d="m 1040.1,21.425 h -13.51 v 129.689 h 13.51 z"
           style="fill:#ffffff;fill-opacity:1;fill-rule:nonzero;stroke:none"
           id="path5710" />
        <g
           id="g5712"
           transform="translate(1109.3613,95.8164)"
           style="fill:#ffffff">
          <path
             d="m 0,0 c -9.007,0 -16.35,-3.049 -22.021,-9.142 -5.676,-6.094 -8.512,-13.614 -8.512,-22.56 0,-8.947 2.851,-16.481 8.556,-22.606 5.704,-6.125 13.028,-9.185 21.977,-9.185 8.824,0 16.087,3.016 21.793,9.05 5.703,6.034 8.558,13.613 8.558,22.741 0,9.066 -2.855,16.616 -8.558,22.65 C 16.087,-3.017 8.824,0 0,0 m -1.621,12.607 c 13.146,0 23.532,-4.803 31.161,-14.408 V 55.297 H 42.958 V -74.392 H 29.54 v 12.7 c -7.507,-9.609 -17.895,-14.412 -31.161,-14.412 -12.071,0 -22.19,4.204 -30.351,12.611 -8.169,8.405 -12.25,19.003 -12.25,31.791 0,12.728 4.081,23.295 12.25,31.702 8.161,8.405 18.28,12.607 30.351,12.607"
             style="fill:#ffffff;fill-opacity:1;fill-rule:nonzero;stroke:none"
             id="path5714" />
        </g>
        <g
           id="g5716"
           transform="translate(1219.416,96.4463)"
           style="fill:#ffffff">
          <path
             d="m 0,0 c -7.686,0 -14.021,-2.402 -19.003,-7.204 -4.987,-4.804 -8.017,-11.138 -9.099,-19.003 h 54.759 c -0.841,7.985 -3.68,14.35 -8.511,19.092 C 13.312,-2.372 7.263,0 0,0 m 0.27,11.978 c 11.587,0 21.13,-4.098 28.637,-12.292 7.507,-8.196 11.318,-18.778 11.44,-31.748 0,-1.861 -0.092,-3.543 -0.271,-5.043 H -28.28 c 0.898,-8.887 4.141,-15.748 9.726,-20.579 5.584,-4.835 12.399,-7.25 20.446,-7.25 10.266,0 19.273,3.571 27.015,10.718 l 7.206,-9.187 C 26.806,-72.29 15.127,-76.732 1.081,-76.732 c -12.673,0 -23.026,4.097 -31.074,12.293 -8.047,8.196 -12.068,18.868 -12.068,32.018 0,12.967 4.009,23.608 12.022,31.926 8.018,8.316 18.12,12.473 30.309,12.473"
             style="fill:#ffffff;fill-opacity:1;fill-rule:nonzero;stroke:none"
             id="path5718" />
        </g>
        <g
           id="g5720"
           transform="translate(1323.4326,108.4238)"
           style="fill:#ffffff">
          <path
             d="m 0,0 c 6.182,0 11.408,-0.961 15.672,-2.881 l -3.243,-13.24 c -4.264,2.282 -9.186,3.424 -14.77,3.424 -6.726,0 -12.221,-2.432 -16.483,-7.295 -4.264,-4.863 -6.392,-11.289 -6.392,-19.274 v -47.733 h -13.422 v 85.288 h 13.331 v -11.977 c 2.943,4.381 6.589,7.759 10.941,10.131 C -10.012,-1.186 -5.223,0 0,0"
             style="fill:#ffffff;fill-opacity:1;fill-rule:nonzero;stroke:none"
             id="path5722" />
        </g>
        <g
           id="g5724"
           transform="translate(103.7368,82.75)"
           style="fill:#ffffff">
          <path
             d="m 0,0 c 0,-6.345 -2.4,-12.688 -7.242,-17.516 -4.827,-4.828 -11.171,-7.226 -17.487,-7.226 -6.343,0 -12.686,2.398 -17.514,7.226 -9.67,9.684 -9.67,25.361 0,35.03 4.828,4.828 11.171,7.242 17.514,7.242 6.316,0 12.66,-2.414 17.487,-7.242 C -2.4,12.687 0,6.343 0,0"
             style="fill:#ffffff;fill-opacity:1;fill-rule:nonzero;stroke:none"
             id="path5726" />
        </g>
        <g
           id="g5728"
           transform="translate(79.043,15.6611)"
           style="fill:#ffffff">
          <path
             d="M 0,0 C 17.12,0 34.32,6.5 47.41,19.59 L 30.32,36.7 Z m -30.41,97.47 c 8.38,8.38 19.38,12.56 30.39,12.56 10.96,0 21.96,-4.18 30.34,-12.56 l 17.09,17.09 C 34.32,127.649 17.12,134.19 0,134.19 c -17.2,0 -34.4,-6.541 -47.49,-19.63 C -73.7,88.34 -73.7,45.85 -47.49,19.59 -34.4,6.5 -17.2,0 0,0 l -30.41,36.7 c -16.77,16.8 -16.77,43.99 0,60.77"
             style="fill:#ffffff;fill-opacity:1;fill-rule:nonzero;stroke:none"
             id="path5730" />
        </g>
      </g>
    </g>
  </g>
</svg>
